# xmcd
#
# Track frame offsets:
#	150
#	23738
#	43730
#	70225
#	91630
#	118453
#	140085
#	167310
#	189405
#	206425
#
# Disc length: 2984 seconds
#
# Revision: 1
# Processed by: cddbd v1.4PL0 Copyright (c) Steve Scherf et al.
# Submitted via: EasyCDDAExtractor 5.0.7
#
DISCID=850ba60a
DTITLE=Various Artist - Niem Mong Uoc Cua Anh
DYEAR=1900
DGENRE=
TTITLE0=Kieu Nga - Cam on tinh yeu
TTITLE1=Ngoc Lan - Hanh phuc troi xa
TTITLE2=Minh Xuan and Minh Phuc - Gri Gri
TTITLE3=Billy Shane and Duy Quang - Niem monuc cua anh
TTITLE4=Ngoc Huong - Chut vuong van trong tim
TTITLE5=Julie - Nhu may khoi
TTITLE6=Joe Marcel and Kieu Nga - Quen di co gai
TTITLE7=Kieu Nga and Trong Nghia - Lang du
TTITLE8=Tuan Anh - Donna
TTITLE9=Nhu Mai - Tinh doi ta
EXTD=
EXTT0=
EXTT1=
EXTT2=
EXTT3=
EXTT4=
EXTT5=
EXTT6=
EXTT7=
EXTT8=
EXTT9=
PLAYORDER=
